<svg xmlns="http://www.w3.org/2000/svg" xmlns:xlink="http://www.w3.org/1999/xlink" viewBox="0 0 363 401"><g id="ss1275094798_1"><path d="M 0 0 L 363 0 L 363 401 L 0 401 Z" fill="transparent"></path><path d="M 9.424 219.907 L 24.921 221.43 C 49.66 223.322 74.389 227.274 98.939 229.646 C 99.55 228.65 100.747 228.814 101.473 229.506 C 103.923 229.292 106.668 227.417 108.887 229.367 C 108.959 229.357 109.031 229.345 109.104 229.338 C 113.055 221.746 115.786 213.647 118.437 205.538 C 120.129 200.553 122.405 195.727 126.611 192.38 C 133.79 187.39 150.237 177.273 158.667 177.699 C 158.806 176.188 159.51 174.63 160.665 173.624 C 158.119 169.278 168.299 166.443 169.017 166.946 C 168.557 152.427 175.378 139.818 190.42 136.927 C 203.895 134.115 223.061 133.643 230.309 147.743 C 231.105 147.653 239.248 147.61 240.036 147.699 C 241.261 146.145 254.715 160.865 249.201 165.99 C 298.497 187.823 326.527 185.218 340.171 246.597 C 342.016 252.363 342.15 258.673 344.098 264.31 C 351.027 280.511 356.648 297.763 358.047 315.391 C 361.425 316.258 361.814 322.222 357.901 323.084 C 356.406 323.414 355.156 323.865 354.066 324.719 C 354.918 339.165 351.428 372.166 349.23 372.064 C 344.746 386.35 324.748 390.381 310.591 385.361 C 313.031 389.958 310.591 392.849 310.591 395.305 C 259.647 397.235 203.945 396.124 153.016 398.77 C 146.501 398.677 139.649 400.372 133.223 399.397 C 129.304 398.456 129.298 392.287 133.273 391.524 L 115.904 387.747 C 116.293 387.6 108.745 382.574 103.041 373.182 C 97.731 362.675 101.345 349.992 98.939 338.563 C 80.149 337.024 61.047 336.366 42.462 333.18 C 39.928 340.771 28.958 331.692 25.472 328.041 C 25.476 328.035 25.48 328.029 25.485 328.024 C 23.797 327.561 22.444 325.978 22.399 324.103 C 21.215 322.41 20.967 320.024 22.102 318.388 C 16.9 288.338 8.971 257.657 6.105 227.325 C 5.083 227.106 4.13 226.641 3.328 225.97 L 3.394 225.905 C 2.024 224.375 1.757 221.734 4.042 220.434 C 5.885 219.384 7.424 219.71 9.424 219.907 Z" fill="rgb(255,255,255)"></path><path d="M 229.369 144.468 C 227.835 140.606 222.646 142.107 223.224 146.165 C 223.571 148.595 224.9 151.162 226.094 153.292 C 227.067 155.025 228.176 156.718 229.679 158.017 C 227.002 160.519 224.232 162.92 221.375 165.214 C 218.261 167.707 215.003 170.014 211.618 172.125 C 208.655 173.98 205.558 175.623 202.765 177.738 C 200.168 179.705 197.802 182.071 196.598 185.16 C 195.316 188.448 195.873 191.845 196.817 195.131 L 196.926 195.503 C 197.891 198.759 199.561 202.684 197.245 205.752 C 196.066 207.313 194.352 208.42 192.872 209.668 C 191.555 210.777 190.324 211.985 189.19 213.281 C 186.721 216.107 184.713 219.286 183.446 222.829 L 183.332 223.151 C 182.246 226.287 181.453 230.129 182.92 233.209 C 183.341 234.091 184.699 233.804 184.935 232.945 C 185.468 230.998 185.44 228.959 185.888 226.984 C 186.353 224.931 187.127 222.981 188.138 221.137 C 190.094 217.569 192.744 214.522 195.874 211.945 L 196.811 211.182 C 199.253 209.176 201.496 207.047 201.992 203.727 C 202.522 200.174 201.1 196.79 200.186 193.427 C 199.549 191.084 199.341 188.838 200.03 186.72 C 200.871 188.094 202.018 189.399 202.926 190.563 C 204.733 192.881 206.558 195.185 208.378 197.494 C 210.251 199.857 212.058 202.271 213.797 204.733 C 214.571 205.837 215.34 206.945 216.103 208.057 C 216.678 208.893 217.48 209.727 218.106 210.579 C 217.954 211.035 217.966 211.56 218.242 211.933 C 221.564 216.427 226.291 207.049 227.524 204.68 C 230.035 199.854 231.903 194.728 234.422 189.904 C 237.032 184.902 240.004 180.035 243.317 175.469 C 245.32 172.707 247.566 170.113 249.399 167.264 C 253.717 171.184 259.399 173.812 264.619 176.196 C 270.353 178.814 276.311 180.952 282.19 183.224 L 283.927 183.899 C 294.058 187.857 304.436 192.206 312.856 199.237 C 322.751 207.5 328.605 219.016 332.963 230.941 C 337.98 244.67 342.13 258.769 345.999 272.859 C 347.981 280.07 349.855 287.31 351.623 294.576 C 353.179 300.976 354.469 307.44 356.271 313.775 C 352.617 313.646 348.45 315.062 345.331 315.471 C 331.115 317.334 317.09 320.304 303.668 325.446 C 302.01 326.081 301.53 327.739 301.892 329.082 C 300.935 328.812 299.98 328.538 299.024 328.27 C 300.071 326.663 299.571 323.79 299.489 322.009 L 299.484 321.886 C 299.399 319.513 299.142 317.137 298.975 314.768 C 298.658 310.252 298.245 305.769 297.695 301.279 L 297.555 300.156 C 296.932 295.271 296.471 290.357 295.791 285.48 L 295.711 284.922 C 296.037 283.674 296.416 282.442 296.815 281.215 C 297.876 277.946 299.374 274.869 300.687 271.703 C 300.842 271.331 300.311 271.116 300.064 271.34 C 297.84 273.342 296.074 275.883 294.656 278.54 C 294.631 278.415 294.609 278.289 294.584 278.164 L 294.422 277.366 C 294.022 275.42 293.537 273.373 292.345 271.795 C 292.218 271.627 291.967 271.592 291.847 271.795 C 290.706 273.728 290.578 276.176 290.402 278.375 C 290.204 280.864 290.179 283.383 290.214 285.878 C 290.282 290.755 290.626 295.644 290.899 300.513 C 291.167 305.296 291.694 310.019 292.373 314.756 L 292.502 315.645 C 292.834 317.899 293.106 320.182 293.544 322.421 L 293.668 323.031 C 293.902 324.141 294.046 325.707 294.512 327.008 C 282.523 323.663 270.515 320.385 258.489 317.175 C 249.795 314.852 241.093 312.564 232.393 310.261 C 231.929 309.414 231.341 308.641 230.649 307.967 C 228.299 305.689 225.184 304.672 222.328 306.426 C 222.095 306.569 222.076 306.933 222.328 307.071 C 222.875 307.371 223.423 307.678 223.962 307.998 L 218.738 306.582 C 214.834 305.522 210.883 304.199 206.887 303.46 C 199.526 299.823 191.61 297.191 183.856 294.589 L 182.943 294.28 C 178.973 292.925 174.866 291.408 170.764 290.656 C 167.762 290.107 164.237 290.77 163.029 293.85 C 161.5 294.859 160.062 296.044 158.674 297.21 C 157.671 298.053 156.709 298.948 155.731 299.82 L 155.55 299.979 C 154.751 300.674 154.117 301.139 153.921 302.245 C 153.82 302.816 154.182 303.588 154.886 303.512 C 157.038 303.281 158.789 300.783 160.249 299.291 C 161.377 298.138 162.514 296.946 163.543 295.678 C 164.143 296.006 164.966 295.947 165.348 295.222 C 167.329 291.467 172.755 294.069 175.758 294.96 L 180.059 296.234 C 182.21 296.873 184.359 297.514 186.505 298.167 C 192.403 299.96 198.272 301.967 204.223 303.614 C 203.691 304.2 203.764 305.242 204.776 305.639 C 209.434 307.469 214.545 308.415 219.385 309.671 C 222.441 310.464 225.494 311.263 228.547 312.066 C 229.071 312.915 229.447 313.875 229.606 314.993 C 230.188 319.104 229.065 323.847 227.97 327.823 L 227.805 328.417 C 226.906 331.613 225.582 335.532 222.827 337.551 C 222.125 338.063 221.299 338.378 220.435 338.463 C 215.043 335.684 209.651 332.905 204.255 330.132 C 203.256 329.618 202.332 330.314 202.108 331.141 C 200.23 330.827 198.381 330.362 196.579 329.748 C 193.674 328.76 191.406 326.877 188.682 325.574 C 183.413 323.054 178.032 326.149 173.315 328.503 L 172.227 329.038 C 170.112 330.066 165.71 332.04 164.695 329.229 C 163.713 326.51 166.817 323.604 168.822 322.38 C 171.212 320.921 173.994 320.14 176.695 319.489 C 178.238 319.116 179.798 318.817 181.369 318.593 C 183.15 318.342 184.99 318.38 186.705 317.801 C 187.557 317.515 187.688 316.159 186.705 315.936 C 184.065 315.334 180.914 315.99 178.159 316.661 L 176.719 317.016 C 173.943 317.698 171.141 318.554 168.612 319.914 C 166.774 320.904 164.834 322.407 163.566 324.247 C 162.465 323.223 161.095 323.257 159.668 323.637 L 158.894 323.853 C 157.614 324.208 156.578 324.452 155.333 324.206 C 155.167 323.299 154.998 322.393 154.818 321.486 C 153.049 312.57 151.094 303.691 148.953 294.857 C 145.247 279.629 140.972 264.545 136.137 249.637 L 135.653 248.146 C 134.539 244.734 133.642 241.017 131.847 237.883 C 130.148 234.92 127.427 233.213 124.194 232.309 C 120.525 231.283 116.67 230.747 112.928 230.054 C 112.093 229.899 111.256 229.753 110.42 229.601 C 111.126 228.324 111.653 226.875 112.128 225.763 L 112.211 225.571 C 113.231 223.242 114.148 220.872 115.033 218.489 L 115.694 216.697 C 117.292 212.383 118.941 208.14 121.187 204.106 C 123.552 199.859 126.689 196.388 130.599 193.515 C 138.571 187.656 148.18 184.667 155.912 178.406 C 156.229 178.15 155.823 177.711 155.501 177.874 C 150.28 180.5 144.644 182.286 139.213 184.424 L 138.142 184.848 C 133.85 186.551 129.491 188.406 125.776 191.164 C 121.634 194.24 118.371 198.059 115.919 202.601 C 113.503 207.079 111.957 212.09 110.252 216.873 L 109.796 218.147 C 109.109 220.058 108.398 221.963 107.584 223.822 C 106.938 225.299 105.733 226.984 105.185 228.67 C 103.685 228.41 102.186 228.149 100.685 227.898 C 68.167 222.464 35.315 219.269 2.359 218.336 C 1.069 218.3 0.403 219.531 0.593 220.657 C 3.755 239.375 6.564 258.157 9.647 276.889 C 10.992 285.064 12.366 293.235 13.77 301.4 C 14.482 305.537 15.304 309.658 15.978 313.801 C 16.522 317.147 16.918 320.519 17.851 323.787 C 18.689 326.717 19.975 329.543 22.086 331.779 C 24.362 334.189 27.539 335.356 30.736 335.907 C 38.855 337.306 47.181 337.877 55.366 338.809 L 98.936 343.772 C 98.3 349.566 98.252 355.27 98.544 361.132 L 98.711 364.332 C 98.847 366.906 99.01 369.484 99.379 372.032 C 99.842 375.227 101.302 377.933 103.453 380.32 C 105.427 382.512 107.826 384.382 110.16 386.174 C 112.582 388.035 115.085 389.831 117.933 390.982 L 118.303 391.129 C 120.801 392.105 125.488 393.618 128.904 393.065 C 128.457 395.305 127.593 397.712 128.359 399.928 C 128.714 400.957 130.058 401.47 130.882 400.595 C 132.513 398.86 132.64 396.568 133.026 394.304 C 133.428 391.949 133.775 389.585 134.083 387.215 C 134.678 382.633 135.141 378.009 135.283 373.388 C 135.428 368.643 135.372 363.891 135.117 359.15 C 134.986 356.716 134.823 354.283 134.514 351.865 C 134.385 350.832 134.245 349.801 134.094 348.772 C 134.038 348.397 133.976 348.024 133.909 347.651 L 137.82 348.092 C 143.816 348.763 149.816 349.368 155.855 349.462 C 156.494 349.482 157.101 349.186 157.48 348.672 C 157.863 349.297 158.53 349.744 159.485 349.74 C 167.919 349.709 175.772 346.948 183.443 343.694 C 187.309 342.053 191.115 340.277 194.987 338.65 C 198.601 337.132 202.465 336.049 205.992 334.339 L 215.26 339.206 C 215.328 339.445 215.415 339.671 215.508 339.861 C 216.111 341.094 217.301 341.763 218.516 342.267 C 219.638 342.733 220.859 342.909 222.067 342.78 C 229.096 346.467 236.126 350.152 243.162 353.827 L 250.198 357.5 C 264.218 364.808 278.183 372.237 292.291 379.374 L 293.329 379.897 C 298.202 382.344 303.435 384.824 308.843 386.674 C 308.939 388.045 308.878 389.377 308.764 390.828 L 308.736 391.144 C 308.575 392.858 308.229 395.006 309.602 396.226 C 310.317 396.861 311.593 396.863 312.079 395.906 C 312.961 394.171 312.169 391.436 311.89 389.551 C 311.791 388.88 311.67 388.191 311.491 387.522 C 317.691 389.37 324.078 390.266 330.387 389.229 C 336.529 388.219 341.287 384.345 345.122 379.606 C 349.163 374.604 352.054 368.774 353.589 362.53 C 355.345 355.421 355.46 348.079 355.419 340.798 C 355.375 333.044 355.088 325.251 354.146 317.549 C 355.178 317.306 356.323 317.096 357.366 317.169 C 357.883 317.996 358.885 318.345 359.79 318.237 C 361.759 320.411 356.765 322.633 355.169 323.19 C 354.615 323.383 354.674 324.284 355.313 324.257 L 355.716 324.238 C 358.182 324.107 360.73 323.685 362.18 321.39 C 363.342 319.551 362.993 317.372 361.607 315.872 C 360.693 307.212 358.505 298.778 356.47 290.33 C 354.472 282.038 352.251 273.799 349.896 265.601 L 348.841 261.932 C 345.133 249.079 341.258 236.122 336.145 223.779 C 333.591 217.616 330.649 211.567 326.662 206.193 C 322.945 201.183 318.556 196.897 313.512 193.236 C 304.109 186.41 293.075 182.286 282.233 178.357 L 281.748 178.181 C 276.129 176.146 270.525 174.087 264.971 171.883 C 260.058 169.933 255.353 167.461 250.464 165.482 C 250.622 165.193 250.776 164.902 250.923 164.606 L 251.014 164.682 C 251.029 164.695 251.045 164.707 251.062 164.718 C 251.553 165.059 252.277 164.891 252.682 164.509 C 253.826 163.428 253.439 162.228 252.675 161.107 L 252.576 160.965 C 251.642 159.655 250.809 158.27 249.947 156.912 L 249.407 156.063 C 247.96 153.795 246.439 151.512 244.51 149.638 C 243.66 148.812 242.677 148.134 241.602 147.635 C 241.69 147.448 240.913 147.064 240.693 147.257 C 237.41 146.054 233.632 146.306 230.052 146.638 M 101.045 344.011 L 105.61 344.531 C 110.632 345.103 115.657 345.657 120.682 346.205 L 131.597 347.392 C 131.625 348.015 131.7 348.624 131.714 349.095 C 131.785 351.52 131.838 353.947 131.889 356.373 C 131.99 361.237 131.879 366.105 131.559 370.959 C 131.249 375.662 130.841 380.366 130.207 385.038 L 130.077 385.972 L 130.001 386.463 C 129.484 386.513 128.975 386.759 128.552 387.265 C 127.629 388.369 124.286 387.296 122.981 386.831 C 120.834 386.066 118.812 384.774 116.946 383.478 C 115.125 382.212 113.484 380.737 111.908 379.183 L 110.618 377.905 C 109.335 376.629 108.05 375.269 107.264 373.663 C 106.198 371.486 106.06 368.813 105.748 366.441 C 105.355 363.522 104.913 360.609 104.42 357.705 M 233.572 313.392 L 234.046 313.516 C 251.247 318.092 268.423 322.804 285.677 327.178 C 294.216 329.343 302.795 331.35 311.344 333.474 L 312.728 333.821 C 319.472 335.527 326.298 337.581 331.462 342.479 C 331.653 342.659 331.93 342.382 331.75 342.191 C 326.184 336.258 318.268 333.747 310.667 331.57 C 309.262 331.167 307.855 330.774 306.45 330.374 C 316.787 326.684 327.287 323.474 338.03 321.185 C 340.796 320.595 343.595 320.163 346.359 319.571 C 348.286 319.158 350.169 318.561 352.076 318.066 L 353.577 317.688 L 353.597 322.435 C 353.622 329.159 353.61 335.878 353.267 342.601 L 353.202 343.846 C 352.802 351.328 352.178 358.965 349.527 366.02 C 347.372 371.752 343.937 377.153 339.445 381.329 C 337.172 383.441 334.729 385.086 331.708 385.898 C 328.903 386.652 325.965 386.74 323.082 386.539 C 309.253 385.573 296.942 378.051 284.93 371.824 C 265.284 361.634 245.627 351.463 225.961 341.311 C 226.498 340.944 226.996 340.523 227.449 340.056 C 230.086 337.329 231.477 333.596 232.391 329.98 C 233.364 326.131 233.946 322.006 234.013 318.033 M 208.545 345.243 C 208.466 345.198 208.37 345.199 208.291 345.244 C 208.213 345.289 208.164 345.372 208.163 345.463 C 208.102 346.967 208.932 348.45 209.552 349.805 L 209.618 349.95 C 210.379 351.629 211.19 353.284 212.05 354.914 C 213.754 358.171 215.53 361.39 217.378 364.568 C 221.098 370.957 225.232 377.078 230.119 382.641 C 231.223 383.898 233.038 382.286 232.33 380.933 C 228.915 374.41 224.934 368.251 220.836 362.146 C 218.784 359.089 216.734 356.029 214.663 352.986 C 213.798 351.716 212.923 350.451 212.024 349.205 L 211.482 348.46 M 4.537 222.072 C 21.8 222.588 39.038 223.727 56.219 225.488 C 75.535 227.474 94.761 230.253 113.849 233.82 L 115.827 234.193 C 119.125 234.819 123.155 235.077 126.091 236.841 C 129.188 238.701 130.024 242.588 131.054 245.793 C 132.266 249.563 133.446 253.343 134.595 257.133 C 139.164 272.181 143.313 287.354 147.038 302.633 C 148.883 310.216 150.52 317.841 152.245 325.452 C 153.777 332.214 155.468 338.9 157.234 345.594 C 156.997 345.411 156.721 345.285 156.427 345.227 C 147.656 343.358 138.702 342.546 129.799 341.514 L 128.938 341.413 C 119.729 340.323 110.517 339.257 101.303 338.215 L 40.292 331.345 C 36.693 330.941 32.839 330.885 29.337 329.919 C 23.383 328.274 21.987 321.61 20.989 316.303 L 20.959 316.143 C 17.947 300.108 15.55 283.933 12.742 267.858 M 155.815 326.954 C 158.183 326.797 161.425 324.625 163.222 324.781 C 162.279 326.366 161.853 328.173 162.397 330.104 C 163.91 335.476 170.753 332.696 174.049 331.055 C 176.752 329.709 179.362 328.062 182.354 327.431 C 185.743 326.718 188.04 328.067 190.903 329.623 C 193.261 330.908 195.809 331.809 198.451 332.293 C 199.852 332.545 201.182 332.572 202.51 332.474 C 202.59 332.539 202.68 332.599 202.783 332.653 L 203.485 333.022 C 200.309 333.168 197.073 334.149 194.117 335.048 C 191.054 335.979 188.047 337.101 185.056 338.248 L 182.113 339.381 C 174.854 342.164 167.341 344.806 159.485 344.783 C 158.92 344.782 158.458 344.938 158.094 345.194 M 169.067 310.121 C 166.727 309.835 164.567 310.142 162.697 311.667 C 160.442 313.506 158.927 316.557 155.685 316.757 C 154.74 316.815 154.52 318.146 155.46 318.424 C 157.873 319.139 159.827 317.832 161.471 316.135 L 162.576 314.979 C 164.201 313.294 165.7 311.992 168.457 312.093 C 171.409 312.201 174.367 312.884 177.3 313.231 C 180.623 313.624 183.946 313.96 187.279 314.249 C 187.434 314.263 187.46 314.018 187.315 313.983 L 183.582 313.052 M 171.326 300.543 L 170.94 300.504 C 167.542 300.174 164.434 300.161 161.4 301.991 L 160.817 302.344 C 158.081 304.009 155.103 305.97 153.392 308.666 C 153.112 309.108 153.575 309.627 154.043 309.515 C 157.332 308.724 159.736 306.309 162.501 304.501 C 165.605 302.472 168.811 302.806 172.35 303.121 C 175.777 303.427 179.201 303.846 182.594 304.418 C 185.782 304.955 188.981 305.802 192.201 306.072 L 192.2 306.066 C 192.568 306.065 192.778 305.512 192.403 305.324 C 189.135 303.691 185.35 302.917 181.795 302.171 M 287.686 208.029 C 287.691 207.76 287.313 207.659 287.18 207.892 C 284.97 211.786 283.814 216.56 282.636 220.851 C 281.402 225.346 280.406 229.886 279.512 234.46 C 277.7 243.721 276.734 252.93 276.669 262.369 C 276.66 263.716 278.853 264.075 279.067 262.694 C 280.491 253.512 281.856 244.321 283.291 235.142 C 284.013 230.525 284.853 225.926 285.658 221.323 M 265.798 214.812 C 265.96 214.275 265.18 214.095 264.98 214.587 C 260.543 225.492 259.04 237.85 261.889 249.355 C 262.325 251.115 264.899 250.352 264.571 248.615 M 208.563 205.122 C 208.586 204.72 208.064 204.657 207.868 204.934 C 205.765 207.9 204.893 211.872 201.205 213.404 C 199.363 214.17 197.29 214.036 195.663 215.329 C 194.576 216.194 193.741 217.558 194.558 218.868 C 194.821 219.291 195.558 219.503 195.916 219.043 C 196.437 218.373 196.714 217.571 197.422 217.069 C 198.422 216.361 199.77 216.317 200.916 215.985 C 202.398 215.554 203.705 214.801 204.775 213.683 M 173.438 155.654 C 173.222 155.543 173.014 155.614 172.875 155.801 C 172.677 156.069 172.701 156.329 172.944 156.512 C 172.62 157.174 172.238 158.834 172.183 159.076 C 171.962 160.055 171.726 161.028 171.48 162.001 C 170.983 163.963 170.547 165.94 170.05 167.903 C 169.518 169.984 168.899 172.041 168.195 174.07 C 168.15 174.202 168.1 174.336 168.048 174.472 L 167.968 174.677 L 167.949 174.646 C 167.807 174.421 167.511 174.579 167.546 174.816 C 167.578 175.033 167.622 175.248 167.659 175.465 L 167.586 175.659 C 167.128 176.891 166.815 178.19 167.654 179.277 C 167.968 179.684 168.314 179.925 168.744 179.996 C 169.435 182.275 170.301 184.51 171.228 186.657 L 171.499 187.284 C 172.863 190.417 174.318 193.509 176.489 196.176 C 178.86 199.088 182.121 201.077 184.187 204.268 C 185.147 205.752 185.816 207.313 186.358 208.989 L 186.563 209.625 C 186.948 210.811 187.392 211.96 188.503 212.655 C 188.857 212.877 189.388 212.806 189.674 212.504 C 191.952 210.091 189.567 205.586 188.194 203.251 C 186.285 200.003 183.521 197.925 180.754 195.474 C 177.772 192.833 175.869 189.299 174.029 185.818 C 172.902 183.686 171.814 181.507 170.668 179.365 C 171.865 178.306 172.248 176.202 172.654 174.74 L 172.691 174.609 C 173.37 172.262 173.884 169.87 174.23 167.451 C 174.554 165.13 174.689 162.843 174.603 160.51 L 174.578 159.916 M 168.988 166.697 C 169.252 166.334 168.815 165.923 168.452 165.999 C 166.246 166.456 164.089 167.793 162.109 168.874 L 161.898 168.988 C 160.317 169.842 158.727 170.887 157.897 172.545 C 156.995 174.346 157.069 176.422 157.192 178.38 L 157.204 178.563 C 157.355 180.911 157.379 183.351 157.875 185.656 C 158.129 186.836 159.197 187.169 160.109 186.89 C 161.195 190.323 164.246 192.853 166.474 195.562 C 169.315 199.015 168.781 203.679 168.484 207.838 C 168.364 209.522 170.456 210.001 171.534 209.103 L 174.017 207.037 C 174.431 206.693 174.844 206.347 175.256 206.001 C 175.608 205.703 175.958 205.404 176.305 205.101 L 176.823 204.643 C 177.052 204.437 178.066 203.304 178.362 203.257 C 179.08 203.142 180.784 205.036 181.368 205.63 L 181.442 205.704 C 182.533 206.783 183.541 207.943 184.457 209.173 C 184.627 209.399 184.959 209.211 184.838 208.95 C 184.009 207.174 183.046 205.476 181.903 203.886 L 181.672 203.57 C 180.911 202.543 179.89 200.731 178.547 200.428 C 176.908 200.058 175.27 201.704 174.077 202.618 L 174.002 202.675 C 173.434 203.101 172.873 203.535 172.313 203.972 C 172.372 200.875 171.981 197.746 170.384 195.077 C 169.258 193.194 167.571 191.8 166.127 190.183 C 164.52 188.382 163.68 186.168 162.226 184.292 C 162.048 184.065 161.787 183.917 161.5 183.88 C 161.444 182.372 161.223 180.849 161.051 179.357 L 161.001 178.911 C 160.828 177.29 160.419 175.31 161.211 173.792 C 161.96 172.358 163.678 171.346 164.95 170.374 L 165.988 169.567 M 240.583 149.559 C 241.267 149.953 241.89 150.445 242.431 151.02 C 244.204 152.903 245.471 155.247 246.705 157.501 C 247.369 158.715 248.009 159.942 248.679 161.154 C 248.97 161.681 249.27 162.202 249.573 162.722 C 249.713 162.962 250.129 163.439 250.335 163.732 C 250.106 164.054 249.869 164.37 249.627 164.683 C 249.535 164.803 243.175 171.739 240.958 174.454 C 237.564 178.612 234.529 183.004 231.935 187.705 C 229.395 192.309 227.461 197.183 225.108 201.876 C 223.93 204.226 222.615 206.559 220.938 208.592 C 220.873 208.671 220.805 208.746 220.739 208.824 C 220.099 207.094 218.459 205.24 217.654 204.176 L 217.579 204.076 C 215.752 201.611 213.823 199.22 211.853 196.87 C 210.053 194.726 208.207 192.622 206.316 190.559 L 205.605 189.786 C 204.288 188.362 202.615 186.23 200.687 185.213 C 200.893 184.844 201.133 184.479 201.408 184.119 C 203.214 181.756 205.768 180.04 208.288 178.493 L 209.922 177.497 C 216.082 173.739 222.145 169.806 227.493 164.923 C 230.322 162.339 233.112 159.633 235.491 156.619 L 236.332 155.553 M 230.305 147.699 C 233.189 147.941 236.304 147.883 238.97 148.824 C 236.6 151.067 234.348 153.489 232.034 155.77 C 231.828 154.228 231.407 152.704 231.05 151.2" fill="rgb(0,0,0)"></path><path d="M 141.661 87.902 C 142.44 81.051 141.432 66.732 141.365 65.862 C 140.938 60.362 143.512 38.644 148.377 40.645 C 156.539 34.176 167.41 32.748 177.575 32.065 C 198.689 30.648 221.151 33.902 237.455 48.129 C 245.518 55.517 253.367 66.263 252.736 77.451 C 260.062 88.057 270.389 102.605 261.262 115.003 C 258.159 118.964 253.228 120.44 249.331 123.44 C 241.491 129.771 236.573 138.856 228.659 145.15 C 207.692 164.014 172.09 167.954 151.49 146.498 C 135.56 130.959 138.136 107.712 140.938 87.902 C 142.822 74.583 140.142 101.267 141.661 87.902 Z" fill="rgb(255,255,255)"></path><path d="M 205.781 3.013 C 200.134 1.873 194.335 1.163 188.569 1.376 L 188.124 1.394 C 183.785 1.567 178.29 1.951 174.505 4.477 C 174.288 4.259 173.938 4.147 173.62 4.298 C 169.122 6.448 164.175 8.002 159.439 9.546 C 154.724 11.083 149.834 12.097 144.893 12.506 C 143.034 12.66 141.443 14.67 142.62 16.472 C 142.9 16.902 143.172 17.336 143.444 17.771 C 142.99 17.724 142.535 17.675 142.081 17.629 C 140.586 17.478 139.092 19.076 139.181 20.533 C 139.236 21.45 139.335 22.355 139.481 23.25 C 138.905 23.231 138.332 23.335 137.799 23.555 C 135.029 24.726 135.222 28.029 135.429 30.542 C 135.717 34.029 137.019 37.722 139.438 40.332 C 137.632 42.211 136.354 44.453 135.591 47.117 C 135.038 49.062 134.73 51.133 134.882 53.158 L 134.93 53.764 C 135.118 55.961 135.492 58.394 137.071 59.974 C 137.881 60.789 138.879 61.086 139.831 60.992 C 139.255 66.055 138.886 71.148 138.539 76.222 L 138.376 78.647 C 137.602 90.375 137.02 102.179 137.172 113.925 C 137.313 124.903 139.48 135.559 146.205 144.472 C 152.329 152.589 161.123 158.572 171.071 160.847 C 176.432 162.074 181.905 162.161 187.332 161.379 C 189.962 160.999 192.609 160.416 195.106 159.496 C 197.869 158.474 199.855 156.971 201.715 154.718 C 202.594 153.65 202.171 151.376 200.419 151.589 C 197.771 151.911 195.353 152.298 192.814 153.083 L 192.451 153.197 C 189.922 154.009 187.303 154.613 184.659 154.871 C 179.243 155.396 173.745 154.867 168.557 153.223 C 160.11 150.542 152.835 144.57 148.173 137.066 C 142.638 128.17 142.012 118.073 142.092 107.844 C 142.178 96.621 142.542 85.391 143.137 74.179 L 143.239 72.31 C 143.553 66.54 143.857 60.767 144.125 54.994 C 144.208 53.184 144.334 51.358 144.563 49.551 C 146.65 48.326 148.52 46.639 149.739 44.556 C 152.188 45.57 154.764 46.302 157.133 46.885 C 162.622 48.237 168.321 48.565 173.909 47.718 C 175.416 48.341 176.952 48.889 178.513 49.361 C 178.935 49.548 179.357 49.732 179.778 49.913 C 183.541 51.525 187.357 52.89 191.329 53.89 L 192.304 54.133 C 194.395 54.649 196.665 55.157 198.889 55.317 C 199.255 55.457 199.649 55.577 200.08 55.682 C 202.109 56.173 204.203 56.333 206.283 56.157 C 208.306 55.987 209.767 53.94 208.653 52.024 C 207.839 50.625 207.017 49.231 206.189 47.841 C 209.072 49.044 212.05 50.043 215.052 50.891 C 218.084 51.745 221.158 52.466 224.237 53.129 C 225.883 53.48 227.536 53.792 229.178 54.143 C 230.354 54.393 232.159 54.523 233.118 55.298 C 234.178 56.15 234.478 58.134 234.88 59.358 C 235.408 60.948 235.903 62.546 236.356 64.161 C 237.257 67.387 237.994 70.657 238.566 73.958 C 239.134 77.267 239.524 80.604 239.734 83.955 C 239.947 87.301 239.854 90.67 240.197 94.002 C 240.382 95.769 242.277 96.678 243.677 95.443 C 243.841 95.298 244.007 95.152 244.171 95.003 L 244.415 94.78 C 245.613 93.694 246.774 92.542 247.732 91.245 C 247.906 91.006 248.072 90.756 248.228 90.503 C 248.254 90.503 248.279 90.494 248.3 90.478 L 248.566 90.278 C 251.492 88.098 256.379 85.255 259.232 88.877 C 260.141 90.031 260.607 91.5 260.993 92.917 L 261.671 95.454 C 262.109 97.11 262.522 98.776 262.763 100.47 C 263.309 104.266 263.034 108.641 260.426 111.684 C 259.384 112.901 257.948 113.77 256.346 113.998 C 255.452 114.121 254.569 113.969 253.683 113.857 C 252.782 113.744 251.914 113.925 251.013 113.839 C 249.581 113.697 248.955 115.414 249.49 116.493 C 249.78 117.073 250.12 117.573 250.507 117.996 C 250.194 118.268 249.896 118.555 249.613 118.858 C 248.767 119.13 248.008 119.713 247.439 120.485 C 246.999 121.068 246.742 121.769 246.701 122.498 C 246.651 122.676 246.608 122.857 246.567 123.042 L 245.791 124.303 C 245.621 124.579 245.451 124.853 245.28 125.121 C 243.305 128.235 241.112 130.872 238.388 133.357 C 235.766 135.747 232.919 137.888 230.455 140.452 L 230.165 140.756 C 227.868 143.18 225.447 146.113 226.346 149.637 C 226.577 150.542 227.84 151.194 228.665 150.582 C 231.316 148.612 232.651 145.49 234.901 143.1 C 237.217 140.637 239.781 138.424 242.103 135.968 C 244.3 133.65 246.032 131.024 247.338 128.134 C 247.859 128.71 248.619 129.119 249.671 129.279 C 251.48 129.55 253.166 128.489 253.954 126.921 C 254.461 127.145 254.978 127.348 255.499 127.507 C 258.241 128.348 259.966 125.295 258.932 123.038 C 258.379 121.828 257.688 120.778 256.83 119.894 C 259.511 119.525 262.239 118.138 264 116.406 C 268.42 112.057 269.028 105.519 268.033 99.706 C 267.489 96.589 266.61 93.54 265.411 90.612 C 265.204 90.102 264.981 89.598 264.742 89.102 C 264.881 89.1 265.013 89.036 265.1 88.927 C 265.899 87.834 266.872 86.939 267.466 85.715 C 268.012 84.592 268.619 83.455 269.05 82.285 C 269.936 79.891 270.37 77.189 270.66 74.657 C 271.257 69.474 271.025 64.324 270.233 59.174 C 268.884 50.402 265.625 42.007 260.825 34.641 C 261.086 34.503 261.336 34.337 261.57 34.141 L 261.685 34.041 L 261.873 33.871 C 263.242 32.63 263.124 30.303 261.873 29.046 L 261.477 28.649 C 260.85 28.007 260.142 27.449 259.372 26.989 C 259.795 26.206 259.942 25.291 259.647 24.28 C 258.62 20.762 253.562 20.886 250.357 22.42 C 246.795 19.23 242.852 16.494 238.617 14.274 C 228.466 8.971 216.988 5.274 205.781 3.014 Z M 258.252 95.697 C 256.356 95.077 253.838 96.377 252.135 97.16 C 249.975 98.152 248.137 99.62 246.357 101.169 C 245.471 101.944 245.312 103.212 245.533 104.295 C 245.555 104.404 245.576 104.516 245.602 104.628 C 245.837 105.784 247.125 106.693 248.264 106.66 C 250.648 106.595 251.784 104.534 253.133 102.788 C 253.292 103.071 253.491 103.332 253.737 103.527 L 253.904 103.658 C 254.464 104.084 255.081 104.426 255.821 104.393 C 256.341 104.369 256.85 104.232 257.312 103.991 C 258.469 103.379 258.979 101.879 258.664 100.659 C 258.483 99.935 258.046 99.301 257.435 98.873 L 257.653 98.723 C 258.12 98.398 258.547 98.055 258.879 97.548 L 258.954 97.428 L 258.925 97.428 C 259.287 96.805 259.051 95.958 258.252 95.697 Z" fill="rgb(0,0,0)"></path><path d="M 177.815 132.423 C 180.269 131.42 182.407 129.773 184.003 127.656 C 184.554 126.921 184.697 126.144 184.582 125.433 C 184.452 124.634 183.979 123.91 183.336 123.424 C 182.69 122.937 181.882 122.696 181.101 122.819 C 180.422 122.925 179.746 123.297 179.211 124.069 L 179.1 124.223 C 178.157 125.501 176.928 126.549 175.527 127.225 C 174.178 127.876 172.668 128.18 171.106 128.003 C 168.132 127.666 166.081 126.056 163.902 123.868 C 163.628 123.588 163.357 123.304 163.089 123.018 C 162.931 122.773 162.693 122.589 162.416 122.498 C 162.113 122.401 161.786 122.406 161.486 122.512 C 161.189 122.614 160.933 122.809 160.755 123.067 C 160.575 123.33 160.493 123.648 160.524 123.965 C 160.723 126.232 161.907 128.255 163.589 129.844 C 165.456 131.608 167.932 132.829 170.262 133.257 C 172.83 133.728 175.446 133.391 177.815 132.423 Z M 169.051 97.45 C 166.319 99.113 162.157 102.989 165.096 107.111 C 168.555 110.745 173.535 106.578 175.989 104.694 C 178.265 103.233 180.822 106.989 178.71 108.695 C 160.976 121.84 153.779 97.885 167.669 95.495 C 169.199 95.232 169.767 96.936 169.051 97.45 Z M 200.831 82.159 C 200.529 78.408 194.823 77.556 194.255 81.268 C 193.747 84.593 194.346 87.647 195.841 90.64 C 197.271 93.5 200.863 92.166 201.135 89.562 C 201.499 86.072 201.018 84.492 200.831 82.159 Z M 157.398 80.499 C 156.603 79.455 155.454 78.743 154.078 79.145 C 149.779 80.403 151.046 86.515 152.556 89.489 C 153.376 91.104 156.028 91.514 157.227 90.092 C 159.18 87.772 160.115 83.14 157.632 80.856 C 157.562 80.731 157.484 80.612 157.398 80.498 Z M 195.902 65.746 L 195.223 65.626 C 193.122 65.263 190.51 64.913 189.023 66.605 C 188.235 67.501 187.964 69.168 189.023 70.027 C 190.887 71.537 192.948 70.952 195.181 71.079 C 197.022 71.185 198.79 71.49 200.563 71.998 C 204.453 73.111 207.622 75.142 210.944 77.374 C 211.38 77.666 211.825 77.108 211.617 76.7 C 209.699 72.94 205.983 69.85 202.261 67.967 C 200.274 66.962 198.1 66.128 195.902 65.746 Z M 161.317 64.061 L 160.797 64.168 C 155.141 65.352 147.791 67.716 145.113 73.279 C 145.011 74.066 145.118 74.235 145.206 74.345 L 145.235 74.382 C 145.308 74.475 145.365 74.605 145.706 74.712 C 145.8 74.69 145.896 74.666 145.992 74.64 C 147.22 74.318 148.192 73.874 149.132 73.414 L 150.152 72.911 C 151.335 72.331 152.528 71.771 153.793 71.357 C 156.491 70.472 159.27 69.858 162.089 69.523 C 162.7 69.451 163.288 69.245 163.753 68.891 C 164.193 68.555 164.53 68.09 164.684 67.471 C 164.882 66.671 164.825 66.066 164.397 65.344 C 164.096 64.832 163.634 64.434 163.083 64.211 C 162.522 63.989 161.908 63.937 161.317 64.061 Z" fill="rgb(0,0,0)"></path><path d="M 130.606 88.003 C 134.055 111.36 158.131 113.943 162.408 90.755 C 161.722 90.455 161.228 89.862 161.331 88.711 C 161.355 83.658 159.788 78.317 155.236 75.507 C 150.531 72.607 145.025 72.32 139.58 72.393 C 129.19 72.145 129.408 80.84 130.606 88.003 Z M 166.177 77.845 C 169.438 77.707 173.563 77.822 176.485 79.811 C 177.288 77.646 179.374 75.334 181.482 74.098 C 173.646 74.328 165.58 73.556 157.685 72.956 C 159.575 74.246 161.333 76.184 162.476 78.424 C 163.536 77.858 165.055 77.911 166.177 77.844 Z M 180.55 90.479 C 189.592 121.64 212.162 108.058 214.622 104.065 C 219.061 97.456 219.895 81.392 216.029 77.097 C 210.496 73.213 202.661 74.212 196.124 74.117 C 184.113 74.279 175.583 77.877 180.55 90.479 Z M 119.93 76.147 C 122.387 75.825 125.012 75.761 127.296 76.844 C 127.999 73.851 130.207 71.349 132.7 70.248 C 133.001 69.869 132.956 69.665 133.987 69.722 C 140.315 67.818 147.397 68.826 153.479 70.778 C 163.084 71.588 173.161 72.227 182.847 73.343 C 191.92 69.263 219.302 68.665 221.004 78.72 C 223.144 78.4 226.789 76.713 228.588 79.001 C 241.781 76.761 255.414 79.874 268.664 81.261 C 271.999 81.875 273.717 88.502 269.931 88.411 C 267.803 87.833 269.997 84.285 267.13 84.018 C 254.346 82.62 241.841 80.637 228.926 80.405 C 229.375 82.638 220.383 82.783 220.251 81.479 C 220.232 81.489 220.211 81.495 220.192 81.504 C 222.414 89.794 220.408 101.725 216.393 106.866 C 210.767 113.598 196.642 115.529 190.38 111.198 C 182.301 107.201 173.896 87.135 176.257 80.468 C 171.972 79.108 167.737 79.517 163.29 80.209 C 164.308 83.089 166.066 90.176 163.537 90.79 C 164.001 104.861 151.211 113.641 139.42 107.869 C 129.215 103.072 125.646 87.89 126.895 78.675 C 125.624 81.133 114.957 78.457 119.93 76.147 Z" fill="rgb(0,0,0)"></path></g></svg>