<?xml version="1.0" encoding="iso-8859-1"?>
<!-- Generator: Adobe Illustrator 21.0.2, SVG Export Plug-In . SVG Version: 6.00 Build 0)  -->
<svg version="1.1" xmlns="http://www.w3.org/2000/svg" xmlns:xlink="http://www.w3.org/1999/xlink" x="0px" y="0px"
	 viewBox="0 0 30.775 32.059" style="enable-background:new 0 0 30.775 32.059;" xml:space="preserve">
<g id="Carol_x5F_Brodi">
	<path d="M14.49,0.025c0.03-0.006,0.089-0.019,0.118-0.025c-0.028,0.317,0.113,0.601,0.3,0.846c1.108-0.974,2.909-0.56,3.789,0.521
		c0.157,0.197,0.297,0.501,0.126,0.732c-0.222,0.285-0.623,0.264-0.946,0.247C16.99,2.24,16.13,1.949,15.362,1.493
		c-0.217,0.211-0.363,0.5-0.302,0.81c0.021,0.505,0.712,0.591,0.756,1.083c1.284-0.183,2.606-0.319,3.89-0.063
		c0.669,0.13,1.318,0.404,1.845,0.842c-0.293-0.698-0.518-1.459-0.404-2.221c0.08-0.266,0.2-0.582,0.504-0.651
		c-0.139,0.222-0.338,0.425-0.367,0.699c-0.15,1.029,0.325,2.035,0.981,2.8c0.139-0.226,0.261-0.482,0.502-0.618
		c0.391-0.268,0.945-0.151,1.277,0.159c0.424,0.36,0.624,0.899,0.786,1.415c0.132-0.31,0.23-0.661,0.502-0.881
		c0.144-0.124,0.351-0.151,0.489-0.278c0.074-0.331,0.142-0.788,0.54-0.872c-0.21,0.25-0.366,0.542-0.405,0.871
		c0.295,0.074,0.607,0.101,0.878,0.25c0.652,0.348,1.116,0.999,1.298,1.71c0.116,0.463,0.225,0.966,0.051,1.431
		c-0.062,0.179-0.245,0.336-0.444,0.291c-0.34-0.059-0.587-0.328-0.793-0.583c-0.491-0.68-0.906-1.437-1.054-2.271
		c-0.388-0.08-0.843,0.15-0.94,0.552c-0.072,0.337,0.046,0.689-0.042,1.027c-0.109-0.003-0.17-0.055-0.181-0.157
		c-0.03-0.273,0.037-0.548-0.006-0.819c-0.195-0.781-0.998-1.425-1.819-1.293c-0.188,0.026-0.322,0.17-0.453,0.293
		c1.138,1.226,2.603,2.076,3.828,3.204c0.577,0.525,1.072,1.133,1.503,1.783c0.286,0.501,0.467,1.073,0.459,1.654
		c0.01,0.424-0.045,0.879-0.305,1.229c-0.221,0.293-0.623,0.387-0.971,0.329c-0.788-0.121-1.458-0.61-2.023-1.144
		c-1.626-1.628-2.728-3.839-2.792-6.161c-0.606,0.751-1.617,0.952-2.532,0.992c-2.361,0.059-4.754-0.79-6.49-2.405
		c0.11,1.058-0.575,1.973-1.267,2.694c-1.012,1.073-2.332,1.818-3.73,2.261C7.436,9.661,6.717,9.834,5.986,9.826
		c0.569,0.487,0.792,1.245,0.87,1.964c0.259,2.367-0.56,4.771-2.019,6.627c-0.095,0.109-0.176,0.229-0.248,0.355
		c0.261,0,0.532-0.018,0.783,0.072c0.891,0.289,1.61,0.937,2.2,1.645c1.364,1.553,2.186,3.568,2.287,5.634
		c0.69-0.823,1.844-1.002,2.861-0.964c1.846-0.005,3.61,0.701,5.172,1.638c0.296,0.209,0.575,0.442,0.853,0.676
		c-0.013-0.368,0.032-0.743,0.199-1.075c0.572-1.245,1.692-2.121,2.811-2.854c1.489-0.872,3.215-1.449,4.957-1.332
		c0.202,0.022,0.351-0.141,0.515-0.231c0.835-0.531,1.831-0.952,2.838-0.771c0.295,0.044,0.657,0.19,0.71,0.524
		c-0.381-0.343-0.913-0.487-1.416-0.398c-0.8,0.069-1.52,0.485-2.131,0.982c0.195,0.138,0.42,0.247,0.567,0.442
		c0.284,0.386,0.228,0.961-0.076,1.321c-0.345,0.436-0.883,0.637-1.392,0.808c0.46,0.195,0.949,0.466,1.067,0.999
		c0.37,0.029,0.781,0.173,0.932,0.545c-0.29-0.167-0.568-0.387-0.922-0.38c-0.033,1.103-1.03,1.946-2.048,2.177
		c-0.434,0.102-0.914,0.164-1.333-0.024c-0.247-0.103-0.23-0.428-0.161-0.638c0.264-0.5,0.772-0.817,1.27-1.049
		c0.47-0.253,0.969-0.463,1.495-0.561c0.042-0.349-0.104-0.731-0.439-0.882c-0.355-0.224-0.79,0.106-1.145-0.121
		c0.01-0.039,0.03-0.119,0.039-0.159c0.321-0.052,0.647,0.029,0.968-0.019c0.62-0.199,1.164-0.719,1.266-1.38
		c0.045-0.318-0.016-0.714-0.343-0.86c-0.542,0.504-0.993,1.089-1.442,1.675c-0.735,0.895-1.331,1.926-2.256,2.648
		c-0.781,0.767-1.771,1.356-2.874,1.482c0.652,0.183,1.259,0.553,1.717,1.055c0.214,0.291,0.485,0.696,0.261,1.053
		c-0.037-0.308-0.095-0.63-0.304-0.871c-0.643-0.77-1.651-1.126-2.628-1.194c0.08,0.278,0.184,0.579,0.073,0.866
		c-0.132,0.485-0.661,0.725-1.128,0.734c-0.523-0.024-1.037-0.198-1.469-0.492c0.269,0.455,0.403,1.019,0.15,1.512
		c0.162,0.308,0.499,0.71,0.226,1.053c-0.023-0.294-0.07-0.62-0.293-0.833c-0.065-0.066-0.148,0.015-0.207,0.046
		c-0.848,0.659-2.089,0.514-2.95-0.044c-0.371-0.25-0.751-0.558-0.886-1.002c-0.05-0.331,0.302-0.546,0.594-0.553
		c1.026-0.064,2.005,0.355,2.899,0.81c0.287-0.184,0.446-0.594,0.288-0.91c-0.141-0.394-0.649-0.511-0.732-0.943
		c-1.05,0.133-2.113,0.271-3.169,0.146c-0.866-0.066-1.709-0.376-2.386-0.926c0.271,0.669,0.505,1.392,0.386,2.122
		c-0.037,0.306-0.192,0.643-0.512,0.736c0.337-0.382,0.485-0.914,0.383-1.414c-0.082-0.785-0.486-1.497-0.982-2.095
		c-0.175,0.292-0.363,0.63-0.716,0.728c-0.331,0.065-0.701,0.031-0.97-0.188c-0.473-0.366-0.73-0.946-0.874-1.512
		c-0.136,0.508-0.44,1.01-0.979,1.158c-0.057,0.344-0.163,0.827-0.568,0.902c0.214-0.257,0.404-0.55,0.387-0.899
		c-0.714-0.021-1.329-0.472-1.755-1.012c-0.416-0.678-0.711-1.55-0.425-2.33c0.164-0.427,0.751-0.24,0.977,0.037
		c0.627,0.723,1.069,1.602,1.326,2.522c0.26,0.001,0.571,0.019,0.75-0.212c0.333-0.371,0.117-0.886,0.19-1.327
		c0.033,0.01,0.098,0.03,0.131,0.04c0.175,0.332-0.052,0.748,0.117,1.093c0.247,0.58,0.832,1.026,1.461,1.097
		c0.295,0.046,0.575-0.112,0.757-0.335c-1.583-1.54-3.631-2.59-4.952-4.399c-0.487-0.63-0.814-1.391-0.881-2.188
		c-0.199,0.569-0.478,1.122-0.886,1.57c-0.28,0.299-0.66,0.565-1.09,0.515c-0.009-0.029-0.026-0.086-0.035-0.115
		c0.518,0.006,0.948-0.347,1.227-0.754c0.456-0.612,0.646-1.371,0.743-2.115c-0.302,0.079-0.63,0.147-0.936,0.051
		c-0.509-0.22-0.739-0.835-0.641-1.358c0.053-0.431,0.226-0.834,0.442-1.206c-0.445,0.278-1.006,0.394-1.486,0.131
		C0.73,17.244,0.351,17.587,0,17.327c0.333-0.022,0.656-0.13,0.911-0.348c-0.767-0.811-0.657-2.101-0.132-3.01
		c0.257-0.392,0.543-0.837,1.015-0.981c0.323-0.077,0.557,0.257,0.576,0.545c0.069,0.797-0.195,1.576-0.483,2.309
		c-0.079,0.24-0.314,0.435-0.303,0.698c0.194,0.23,0.527,0.361,0.821,0.259c0.455-0.079,0.547-0.679,1.011-0.745
		c0.027,0.255-0.208,0.41-0.376,0.559c-0.473,0.326-0.539,0.972-0.474,1.497c0.088,0.536,0.488,1.136,1.098,1.081
		c0.1-1.01-0.121-2.017-0.228-3.018c-0.195-1.396-0.351-2.836-0.019-4.224c0.162-0.598,0.42-1.187,0.852-1.64
		c-0.642,0.302-1.342,0.542-2.061,0.491c-0.36-0.009-0.782-0.155-0.904-0.53c0.4,0.303,0.904,0.471,1.406,0.364
		c0.768-0.081,1.425-0.507,2.058-0.912C4.471,9.55,4.156,9.343,4.056,8.994c-0.07-0.36-0.001-0.761,0.248-1.039
		c0.354-0.434,0.889-0.657,1.413-0.808c-0.502-0.126-0.981-0.46-1.112-0.985c-0.348-0.059-0.841-0.156-0.91-0.572
		c0.263,0.21,0.562,0.405,0.915,0.386c0.005-0.854,0.62-1.602,1.362-1.964C6.571,3.74,7.271,3.557,7.915,3.764
		C8.223,3.844,8.247,4.24,8.11,4.477C7.886,4.866,7.505,5.132,7.13,5.363C6.587,5.723,5.975,5.978,5.337,6.11
		C5.331,6.44,5.464,6.784,5.77,6.946c0.361,0.264,0.825-0.079,1.2,0.15c-0.196,0.326-0.647,0.09-0.953,0.158
		C5.244,7.432,4.603,8.211,4.687,9.02C4.708,9.23,4.863,9.392,5.019,9.521c0.661-0.66,1.269-1.371,1.807-2.134
		c0.888-1.235,1.881-2.459,3.211-3.238c0.409-0.264,0.892-0.356,1.354-0.482C10.838,3.3,10.165,3.057,9.783,2.479
		C9.618,2.225,9.417,1.861,9.632,1.582c-0.017,0.674,0.513,1.169,1.051,1.481c0.534,0.309,1.134,0.532,1.759,0.528
		c-0.082-0.277-0.126-0.574-0.059-0.857c0.151-0.443,0.623-0.714,1.077-0.714c0.518,0.003,1.006,0.207,1.451,0.457
		c-0.256-0.461-0.377-1.029-0.087-1.504C14.602,0.71,14.448,0.377,14.49,0.025z M15.561,1.387c0.698,0.476,1.562,0.576,2.382,0.642
		c0.2,0.016,0.391-0.057,0.574-0.128c0.052-0.419-0.358-0.674-0.697-0.805C17.083,0.835,16.194,0.901,15.561,1.387z M12.729,3.64
		c0.99,0.06,1.966-0.126,2.947-0.226c-0.217-0.191-0.395-0.419-0.6-0.62C14.705,2.503,14.2,2.49,13.752,2.543
		C13.231,2.634,12.647,3.046,12.729,3.64z M18.843,3.778c-1.329,0.146-2.655,0.37-3.995,0.36c-0.63-0.058-1.268-0.008-1.892-0.122
		c0.12,0.252,0.35,0.42,0.548,0.609c1.517,1.269,3.49,1.986,5.47,1.958c0.834-0.053,1.691-0.231,2.382-0.725
		c0.291-0.241,0.576-0.618,0.456-1.015c-0.161-0.416-0.536-0.719-0.942-0.883C20.231,3.686,19.519,3.757,18.843,3.778z M9.694,4.96
		C8.791,5.995,8.016,7.14,7.061,8.131C6.576,8.71,5.963,9.159,5.418,9.676c2.002,0.08,3.997-0.707,5.518-1.991
		c0.674-0.658,1.316-1.422,1.546-2.358c0.093-0.344,0.138-0.733-0.046-1.054c-0.178-0.351-0.617-0.486-0.984-0.415
		C10.742,3.964,10.152,4.434,9.694,4.96z M6.616,4.208c-0.624,0.36-1.1,0.99-1.224,1.707C6.278,5.73,7.039,5.177,7.668,4.548
		C7.81,4.431,7.815,4.246,7.814,4.078C7.421,3.926,6.974,3.999,6.616,4.208z M22.322,5.413c-0.092,0.801,0.052,1.607,0.273,2.375
		c0.252,0.786,0.531,1.585,1.045,2.243c0.598,0.948,1.387,1.826,2.423,2.299c0.454,0.21,0.965,0.35,1.465,0.242
		c0.348-0.08,0.571-0.439,0.574-0.783c0.044-0.676-0.311-1.307-0.774-1.774c-1.058-0.946-2.25-1.734-3.276-2.718
		C23.415,6.727,22.857,6.078,22.322,5.413z M26.059,5.427c0.149,0.856,0.69,1.58,1.258,2.211c0.139,0.188,0.518,0.338,0.631,0.052
		c0.073-0.277,0.002-0.57-0.101-0.83C27.533,6.128,26.837,5.584,26.059,5.427z M4.76,10.163c-0.536,0.263-0.843,0.846-0.935,1.418
		c-0.192,1.318,0.197,2.618,0.255,3.929c0.118,1.162,0.073,2.332-0.029,3.493c0.67-0.543,1.136-1.284,1.543-2.033
		c0.54-1.046,0.955-2.191,0.99-3.378c0.103-1.066-0.109-2.212-0.768-3.078C5.571,10.219,5.137,9.965,4.76,10.163z M1.469,13.561
		c-0.636,0.748-0.601,1.922-0.081,2.723c0.021-0.002,0.062-0.005,0.083-0.006c0.395-0.649,0.562-1.41,0.601-2.161
		c0.06-0.255,0.001-0.509-0.1-0.743C1.778,13.333,1.587,13.396,1.469,13.561z M4.299,19.488c-0.295,0.15-0.436,0.494-0.431,0.812
		c0.015,0.528,0.255,1.027,0.587,1.43c0.481,0.595,1.099,1.057,1.697,1.527c1.308,0.975,2.499,2.106,3.54,3.361
		c0.095-0.801-0.098-1.597-0.282-2.372c-0.384-1.341-1.105-2.583-2.075-3.585C6.81,20.155,6.209,19.693,5.5,19.485
		C5.117,19.364,4.669,19.285,4.299,19.488z M21.156,24.286c-0.806,0.654-1.504,1.509-1.759,2.533
		c-0.044,0.381-0.072,0.85,0.26,1.118c0.381,0.283,0.91,0.229,1.333,0.071c0.669-0.239,1.148-0.79,1.617-1.295
		c0.357-0.342,0.618-0.764,0.932-1.142c0.877-1.173,1.906-2.228,3.033-3.163c-0.19-0.033-0.38-0.074-0.572-0.058
		C24.238,22.476,22.516,23.155,21.156,24.286z M4.058,24.337c-0.13,0.572,0.159,1.151,0.563,1.543
		c0.348,0.376,0.814,0.646,1.323,0.732c-0.166-0.867-0.733-1.585-1.302-2.231C4.516,24.206,4.152,24.064,4.058,24.337z
		 M12.433,25.518c-0.85,0.111-1.756,0.453-2.24,1.2c-0.177,0.569,0.336,1.019,0.788,1.254c0.924,0.462,1.988,0.253,2.969,0.145
		c1.657-0.235,3.347-0.352,5.013-0.131c-0.542-0.661-1.242-1.203-2.038-1.519C15.55,25.759,13.985,25.349,12.433,25.518z
		 M24.69,27.116c-0.202,0.174-0.433,0.353-0.512,0.62c-0.05,0.248,0.293,0.275,0.467,0.274c0.999-0.074,1.759-0.96,1.976-1.892
		C25.923,26.318,25.232,26.62,24.69,27.116z M16.179,28.602c0.206,0.173,0.361,0.395,0.549,0.586
		c0.676,0.475,1.72,0.413,2.281-0.217c0.159-0.169,0.173-0.413,0.179-0.63C18.178,28.31,17.178,28.478,16.179,28.602z
		 M13.309,30.153c0.035,0.176,0.109,0.351,0.262,0.458c0.747,0.61,1.886,0.557,2.673,0.053c-0.002-0.019-0.006-0.058-0.008-0.078
		c-0.718-0.447-1.589-0.585-2.423-0.596C13.627,29.97,13.453,30.037,13.309,30.153z"/>
</g>
<g id="Layer_1">
</g>
</svg>
